<?xml version="1.0" encoding="UTF-8"?><!DOCTYPE svg PUBLIC "-//W3C//DTD SVG 1.1//EN" "http://www.w3.org/Graphics/SVG/1.1/DTD/svg11.dtd"><svg xmlns="http://www.w3.org/2000/svg" xmlns:xlink="http://www.w3.org/1999/xlink"><symbol id="banner"><path fill-rule="evenodd" clip-rule="evenodd" d="M188 61.973V10.027c0-4.71-3.84-8.527-8.576-8.527H65v69h114.424a8.6 8.6 0 0 0 6.064-2.498 8.504 8.504 0 0 0 2.512-6.03z" fill="#015A75"/><path d="M1 11a9 9 0 0 1 9-9h54v68H10a9 9 0 0 1-9-9V11z" fill="#fff"/><path fill-rule="evenodd" clip-rule="evenodd" d="M64 71.5h115.656c5.158-.006 9.338-4.176 9.344-9.322V9.823c-.006-5.147-4.186-9.317-9.344-9.323H64v71zm115.656-1.456H65.46V1.956h114.196c4.352.005 7.88 3.524 7.884 7.867v52.355c-.004 4.342-3.532 7.861-7.884 7.866zM27.938 24.5l-3.042 4.12c-1.525 2.064-1.052 5.718 1.03 7.193l5.642 3.997c.968.687 1.044 1.374.585 2.091l.82.599 2.857-3.885c1.766-2.4 1.612-5.667-1.007-7.538l-5.693-4.072c-.68-.488-.752-1.167-.375-1.923l-.82-.574M33.017 6.5l-4.75 6.34c-2.227 2.973-1.416 8.042 1.628 10.208l7.807 5.533c1.582 1.12 1.79 3.977.637 5.44L39 34.5l5.386-7.311c2.418-3.285 2.278-8.138-1.52-10.8l-8.352-5.857c-1.17-.812-1.753-2.212-.78-3.542l-.718-.49M21 47.042h6.263L28.38 50.5h10.237l1.117-3.458H46l-.821-2.542H21.821L21 47.042zM24.423 59.15c1.133-.656 1.83-1.618 1.83-2.938 0-2.636-2.19-3.712-4.58-3.712H15v14h6.616c2.824 0 5.816-1.218 5.332-4.425-.287-1.836-1.024-2.27-2.522-2.928l-.003.003zm-6.411-3.97h3.474c2.166 0 2.244 2.985.135 2.985h-3.61v-2.986zm3.874 8.675h-3.874v-3.193h3.874c2.845 0 2.67 3.193 0 3.193z" fill="#015A75"/><path fill-rule="evenodd" clip-rule="evenodd" d="M36.423 59.15c1.133-.656 1.83-1.618 1.83-2.938 0-2.636-2.19-3.712-4.58-3.712H27v14h6.616c2.821 0 5.816-1.218 5.332-4.425-.287-1.836-1.024-2.27-2.522-2.928l-.003.003zm-6.4-3.977h3.466c2.166 0 2.244 2.986.135 2.986H30.02l.003-2.986zm3.866 8.68H30.02v-3.19h3.866c2.842 0 2.67 3.192 0 3.192l.003-.003zM51.946 62.078c-.288-1.836-1.024-2.27-2.523-2.928 1.133-.656 1.83-1.618 1.83-2.938 0-2.636-2.19-3.712-4.58-3.712H40v14h6.616c2.821 0 5.816-1.218 5.332-4.425l-.002.003zm-8.914-6.902h3.454c2.166 0 2.244 2.986.135 2.986h-3.6l.01-2.986zm3.866 8.679H43.02v-3.193h3.866c2.842 0 2.67 3.193 0 3.193h.011z" fill="#015A75"/><path fill-rule="evenodd" clip-rule="evenodd" d="M82.779 31.807l.65 1.693H86l-4.079-10h-2.825L75 33.5h2.572l.666-1.693h4.54zm-3.92-1.878l1.651-4.302 1.651 4.302H78.86zM86 28.509c0-2.97 2.443-5.007 5.598-5.007 1.839-.047 3.546.873 4.4 2.372l-1.925.87c-.479-.849-1.422-1.39-2.46-1.413-1.908 0-3.296 1.346-3.296 3.162 0 1.816 1.388 3.162 3.295 3.162 1.045-.01 1.997-.55 2.475-1.404l1.913.877c-.757 1.202-2.082 2.372-4.4 2.372-3.142 0-5.6-2.019-5.6-4.991zM96 28.52c0-2.976 2.444-5.018 5.6-5.018 1.839-.047 3.547.876 4.4 2.377l-1.925.872c-.481-.854-1.431-1.397-2.475-1.416-1.908 0-3.296 1.35-3.296 3.17 0 1.82 1.388 3.17 3.296 3.17 1.044-.011 1.997-.553 2.475-1.408l1.925.855c-.757 1.205-2.083 2.378-4.4 2.378-3.153.024-5.6-2-5.6-4.98zM111.641 29.95l1.937 3.542L116 33.5l-2.22-3.814c1.058-.242 2.153-1.198 2.153-2.966 0-1.858-1.26-3.22-3.315-3.22H108v9.992h2.102V29.95h1.539zm.656-4.579c.845 0 1.48.51 1.48 1.349s-.627 1.348-1.48 1.348h-2.203v-2.697h2.203zM117 33.5v-10h7v1.873h-4.897v2.113h4.781v1.873h-4.781v2.263h4.886v1.873L117 33.5zM126 23.5v10h3.836c3.042 0 5.164-1.977 5.164-4.992 0-3.015-2.117-5.008-5.164-5.008H126zm3.849 1.876c1.987 0 3.048 1.363 3.048 3.132l-.011-.002c0 1.695-1.125 3.118-3.037 3.118h-1.764v-6.248h1.764zM137 33.5v-10h2v10h-2zM143.934 33.5v-8.127H141V23.5h8v1.873h-2.917V33.5h-2.149zM151 33.5v-10h7v1.873h-4.897v2.113h4.776v1.873h-4.776v2.263h4.886v1.873L151 33.5zM160 23.5v10h3.836c3.042 0 5.164-1.977 5.164-4.992 0-3.015-2.117-5.008-5.164-5.008H160zm3.849 1.876c1.987 0 3.048 1.363 3.048 3.132l-.011-.002c0 1.695-1.122 3.118-3.037 3.118h-1.764v-6.248h1.764zM76 50.5v-10h5.056c1.833 0 2.766 1.213 2.766 2.55 0 1.259-.75 2.098-1.656 2.292 1.022.163 1.834 1.2 1.834 2.453 0 1.5-.964 2.7-2.795 2.7L76 50.5zm5.734-7.088c0-.304-.12-.594-.333-.8a1.024 1.024 0 0 0-.79-.29h-2.565v2.18h2.564c.69 0 1.121-.45 1.121-1.08l.003-.01zm-1.053 2.92c.807 0 1.24.54 1.24 1.17 0 .713-.47 1.152-1.24 1.152h-2.635v-2.323h2.635zM86 46.405V40.5h2.168v5.833c0 1.368.813 2.311 2.339 2.311 1.525 0 2.325-.943 2.325-2.311V40.5H95v5.892c0 2.445-1.46 4.108-4.485 4.108C87.49 50.5 86 48.82 86 46.405zM97 48.954l1.12-1.567a4.272 4.272 0 0 0 3.091 1.306c1.136 0 1.69-.527 1.69-1.073 0-.71-.903-.913-1.966-1.174-1.59-.362-3.628-.792-3.628-3.002 0-1.61 1.4-2.944 3.686-2.944 1.545 0 2.828.464 3.79 1.348l-1.153 1.511a4.184 4.184 0 0 0-2.827-1.055c-.888 0-1.384.393-1.384.971 0 .625.888.826 1.937 1.074 1.59.377 3.644.857 3.644 3.046 0 1.77-1.267 3.105-3.89 3.105-1.865-.019-3.206-.633-4.11-1.546zM107 50.5v-10h2v10h-2zM117.94 50.5l-4.798-6.521V50.5H111v-10h2.194l4.664 6.27V40.5H120v10h-2.06zM122 50.5v-10h7v1.873h-4.897v2.113h4.781v1.873h-4.781v2.263h4.884v1.873L122 50.5zM130 48.954l1.12-1.567a4.264 4.264 0 0 0 3.086 1.306c1.136 0 1.689-.527 1.689-1.073 0-.71-.902-.913-1.964-1.174-1.588-.362-3.624-.792-3.624-3.002 0-1.61 1.398-2.944 3.682-2.944 1.544 0 2.825.464 3.786 1.348l-1.144 1.511a4.18 4.18 0 0 0-2.824-1.055c-.887 0-1.382.393-1.382.971 0 .625.889.826 1.935 1.074 1.588.377 3.64.857 3.64 3.046 0 1.77-1.265 3.105-3.886 3.105-1.864-.019-3.203-.633-4.114-1.546zM140 48.954l1.121-1.567a4.271 4.271 0 0 0 3.09 1.306c1.136 0 1.69-.527 1.69-1.073 0-.71-.903-.913-1.966-1.174-1.59-.362-3.628-.792-3.628-3.002 0-1.61 1.4-2.944 3.686-2.944 1.545 0 2.828.464 3.79 1.348l-1.153 1.511a4.187 4.187 0 0 0-2.827-1.055c-.888 0-1.384.393-1.384.971 0 .625.891.826 1.937 1.074 1.59.377 3.644.857 3.644 3.046 0 1.77-1.267 3.105-3.89 3.105-1.868-.019-3.209-.633-4.11-1.546z" fill="#fff"/><path fill-rule="evenodd" clip-rule="evenodd" d="M9.387 71.5H66V.5H9.387C4.205.506.007 4.676 0 9.823v52.355c.006 5.146 4.205 9.316 9.387 9.322zM1.467 9.823C1.47 5.48 5.013 1.96 9.386 1.956h55.147v68.088H9.387c-4.373-.005-7.916-3.524-7.92-7.866V9.823z" fill="#015A75"/></symbol><symbol id="logo"><path fill-rule="evenodd" clip-rule="evenodd" d="M19.026 0H8.974C5.854 0 4.722.325 3.58.935A6.36 6.36 0 0 0 .935 3.581C.325 4.721 0 5.853 0 8.974v10.052c0 3.12.325 4.252.935 5.393a6.36 6.36 0 0 0 2.646 2.646c1.14.61 2.272.935 5.393.935h10.052c3.12 0 4.252-.325 5.393-.935a6.36 6.36 0 0 0 2.646-2.646c.61-1.14.935-2.272.935-5.393V8.974c0-3.12-.325-4.252-.935-5.393A6.36 6.36 0 0 0 24.419.935C23.279.325 22.147 0 19.026 0zM4.312 2.302c1.041-.557 2.05-.752 4.662-.752h10.053c2.61 0 3.62.195 4.661.752a4.81 4.81 0 0 1 2.01 2.01c.557 1.041.752 2.05.752 4.662v10.052c0 2.611-.195 3.62-.752 4.662a4.81 4.81 0 0 1-2.01 2.01c-1.041.557-2.05.752-4.661.752H8.974c-2.611 0-3.62-.195-4.662-.752a4.81 4.81 0 0 1-2.01-2.01c-.557-1.041-.752-2.05-.752-4.662V8.974c0-2.611.195-3.62.752-4.662a4.811 4.811 0 0 1 2.01-2.01z" fill="#fff"/><path d="M14.262 22.745c-5.946 0-10.1-4.447-10.182-4.53a.83.83 0 0 1 .18-.96.808.808 0 0 1 .96-.11c.327.33 8.39 8.894 18.002-.082a.809.809 0 0 1 .948.246.83.83 0 0 1 .03.989c-3.584 3.377-7.005 4.447-9.938 4.447z" fill="#fff"/><path fill-rule="evenodd" clip-rule="evenodd" d="M20.28 11.376a3.251 3.251 0 0 1-3.982-5.078 3.25 3.25 0 0 1 5.079 3.982l1.657 1.657a.775.775 0 0 1-1.096 1.096l-1.657-1.657zm-.482-1.578a1.7 1.7 0 1 0-2.404-2.404 1.7 1.7 0 0 0 2.404 2.404zM7.511 11.307a3.251 3.251 0 0 0 3.983-5.078 3.25 3.25 0 0 0-5.079 3.982l-1.657 1.657a.775.775 0 0 0 1.096 1.096l1.657-1.657zm.483-1.578a1.7 1.7 0 1 1 2.404-2.404 1.7 1.7 0 0 1-2.404 2.404zM44.138 20v-1.332c-.383.478-.875.84-1.476 1.086-.602.246-1.292.37-2.07.37-.766 0-1.44-.148-2.02-.442a3.233 3.233 0 0 1-1.343-1.22 3.3 3.3 0 0 1-.471-1.742c0-1.025.362-1.828 1.086-2.409.725-.58 1.75-.878 3.075-.891h3.198v-.287c0-.643-.211-1.141-.635-1.497-.424-.355-1.039-.533-1.845-.533-1.039 0-2.125.342-3.26 1.025l-.963-1.845c.86-.478 1.643-.823 2.347-1.035.704-.212 1.527-.318 2.47-.318 1.422 0 2.525.342 3.311 1.025.786.684 1.186 1.64 1.2 2.87l.02 7.175h-2.624zm-.943-2.47c.547-.362.854-.81.922-1.343v-.984H41.35c-.71 0-1.234.106-1.568.318-.335.212-.503.557-.503 1.035 0 .465.175.834.523 1.107.349.273.824.41 1.425.41.765 0 1.421-.18 1.968-.543zm15.733-7.872a4.774 4.774 0 0 1 1.825 1.978c.43.848.646 1.825.646 2.932 0 1.093-.212 2.057-.636 2.89a4.689 4.689 0 0 1-1.804 1.948c-.779.464-1.68.697-2.706.697-.82 0-1.544-.16-2.173-.482a4.088 4.088 0 0 1-1.558-1.404v5.76h-2.665V9.033h2.665v1.804a3.957 3.957 0 0 1 1.528-1.405c.621-.32 1.342-.481 2.162-.481 1.025 0 1.93.235 2.716.707zm-1.096 7.216c.574-.622.86-1.418.86-2.388s-.286-1.763-.86-2.378c-.574-.615-1.312-.923-2.214-.923-.916 0-1.66.308-2.235.923-.574.615-.86 1.407-.86 2.378 0 .984.286 1.783.86 2.398.574.615 1.319.923 2.235.923.902 0 1.64-.311 2.214-.933zm15.057-7.216a4.774 4.774 0 0 1 1.825 1.978c.43.848.646 1.825.646 2.932 0 1.093-.212 2.057-.636 2.89a4.688 4.688 0 0 1-1.804 1.948c-.779.464-1.68.697-2.706.697-.82 0-1.544-.16-2.173-.482a4.089 4.089 0 0 1-1.558-1.404v5.76h-2.665V9.033h2.665v1.804a3.959 3.959 0 0 1 1.527-1.405c.622-.32 1.343-.481 2.163-.481 1.025 0 1.93.235 2.716.707zm-1.096 7.216c.574-.622.86-1.418.86-2.388s-.286-1.763-.86-2.378c-.574-.615-1.312-.923-2.214-.923-.916 0-1.66.308-2.235.923-.574.615-.86 1.407-.86 2.378 0 .984.286 1.783.86 2.398.574.615 1.319.923 2.235.923.902 0 1.64-.311 2.214-.933zM87.7 9.033v9.922c0 1.038-.236 1.944-.707 2.716-.472.772-1.142 1.367-2.01 1.783-.867.417-1.875.626-3.023.626-1.668 0-3.212-.485-4.633-1.456l1.066-1.927c1.038.765 2.18 1.148 3.423 1.148.984 0 1.767-.253 2.348-.758.58-.506.87-1.196.87-2.07v-1.292c-.368.56-.847.987-1.434 1.28-.588.295-1.271.442-2.05.442-.957 0-1.804-.222-2.542-.667a4.547 4.547 0 0 1-1.722-1.865c-.41-.8-.615-1.719-.615-2.757 0-1.025.205-1.93.615-2.717a4.508 4.508 0 0 1 1.722-1.834c.738-.438 1.585-.656 2.542-.656.765 0 1.445.15 2.04.45.594.301 1.076.725 1.445 1.272v-1.64H87.7zm-3.475 7.451c.54-.58.81-1.336.81-2.265 0-.93-.27-1.684-.81-2.265-.54-.58-1.24-.871-2.101-.871s-1.562.293-2.102.881c-.54.588-.816 1.34-.83 2.255.014.93.29 1.685.83 2.265.54.581 1.24.872 2.102.872.86 0 1.561-.29 2.101-.872zm10.782-6.97c.636-.375 1.377-.57 2.225-.584v2.583c-1.135-.068-2.04.195-2.717.79-.676.594-1.014 1.397-1.014 2.408v5.29h-2.665V9.032h2.665v2.111c.369-.71.871-1.254 1.507-1.63zm11.891.134a5.047 5.047 0 0 1 2.029 1.957c.485.84.728 1.808.728 2.901 0 1.107-.243 2.084-.728 2.932a5.028 5.028 0 0 1-2.029 1.968c-.868.464-1.869.697-3.004.697-1.148 0-2.159-.233-3.034-.697a5.01 5.01 0 0 1-2.04-1.968c-.484-.848-.727-1.825-.727-2.932 0-1.093.243-2.06.728-2.9a5.03 5.03 0 0 1 2.039-1.958c.875-.465 1.886-.697 3.034-.697 1.135 0 2.136.232 3.004.697zm-5.259 2.5c-.574.616-.861 1.415-.861 2.4 0 .983.287 1.783.861 2.398.574.615 1.326.922 2.255.922.902 0 1.64-.307 2.214-.922.574-.615.861-1.415.861-2.399s-.287-1.783-.861-2.398c-.574-.615-1.312-.923-2.214-.923-.929 0-1.681.308-2.255.923zm18.133-2.5a5.047 5.047 0 0 1 2.029 1.957c.485.84.728 1.808.728 2.901 0 1.107-.243 2.084-.728 2.932a5.028 5.028 0 0 1-2.029 1.968c-.868.464-1.869.697-3.004.697-1.148 0-2.159-.233-3.034-.697a5.01 5.01 0 0 1-2.039-1.968c-.486-.848-.728-1.825-.728-2.932 0-1.093.242-2.06.728-2.9a5.029 5.029 0 0 1 2.039-1.958c.875-.465 1.886-.697 3.034-.697 1.135 0 2.136.232 3.004.697zm-5.259 2.5c-.574.616-.861 1.415-.861 2.4 0 .983.287 1.783.861 2.398.574.615 1.326.922 2.255.922.902 0 1.64-.307 2.214-.922.574-.615.861-1.415.861-2.399s-.287-1.783-.861-2.398c-.574-.615-1.312-.923-2.214-.923-.929 0-1.681.308-2.255.923zm8.262-3.095l2.788-.02 2.87 8.343 2.809-8.343h2.685L129.746 20h-2.747l-4.223-10.947zm20.818 1.394c.881.998 1.322 2.399 1.322 4.203 0 .355-.007.621-.021.8h-8.097c.178.778.543 1.39 1.097 1.834.553.444 1.233.666 2.039.666.561 0 1.097-.106 1.61-.318.512-.211.96-.516 1.342-.912l1.435 1.497a5.549 5.549 0 0 1-1.998 1.394c-.786.328-1.657.492-2.614.492-1.121 0-2.108-.233-2.962-.697a4.872 4.872 0 0 1-1.979-1.958c-.464-.84-.697-1.808-.697-2.9 0-1.094.236-2.065.708-2.912a5.006 5.006 0 0 1 1.978-1.978c.847-.472 1.811-.707 2.89-.707 1.75 0 3.065.499 3.947 1.496zm-1.118 3.219c-.027-.807-.294-1.449-.799-1.927-.506-.479-1.176-.718-2.009-.718-.779 0-1.432.236-1.958.707-.526.472-.851 1.118-.974 1.938h5.74zm9.584-2.399c-.567-.178-1.089-.266-1.568-.266-.451 0-.81.078-1.076.235-.267.158-.4.4-.4.728 0 .342.168.605.502.79.335.184.865.379 1.589.584.766.232 1.394.46 1.886.686.492.226.919.56 1.281 1.005.363.444.544 1.028.544 1.753 0 1.066-.41 1.886-1.23 2.46-.82.574-1.852.86-3.096.86a7.852 7.852 0 0 1-2.48-.4c-.807-.266-1.49-.645-2.05-1.137l.922-1.865c.492.423 1.08.755 1.763.994.684.24 1.333.359 1.948.359.492 0 .885-.086 1.178-.257a.834.834 0 0 0 .441-.768c0-.383-.171-.67-.512-.861-.342-.192-.895-.404-1.661-.636-.738-.219-1.339-.434-1.804-.646a3.262 3.262 0 0 1-1.209-.963c-.342-.43-.513-.994-.513-1.691 0-1.08.393-1.903 1.179-2.47.786-.568 1.773-.851 2.962-.851.725 0 1.439.102 2.142.307.704.205 1.33.492 1.876.861l-.963 1.927a7.858 7.858 0 0 0-1.651-.738z" fill="#fff"/></symbol></svg>